<?xml version="1.0" standalone="no"?>
<!DOCTYPE svg PUBLIC "-//W3C//DTD SVG 20010904//EN"
 "http://www.w3.org/TR/2001/REC-SVG-20010904/DTD/svg10.dtd">
<svg version="1.0" xmlns="http://www.w3.org/2000/svg"
 width="560.000000pt" height="560.000000pt" viewBox="0 0 560.000000 560.000000"
 preserveAspectRatio="xMidYMid meet">
<metadata>
Created by potrace 1.14, written by Peter Selinger 2001-2017
</metadata>
<g transform="translate(0.000000,560.000000) scale(0.100000,-0.100000)"
fill="#000000" stroke="none">
<path d="M2695 4620 c-2 -4 -17 -7 -32 -8 -15 -1 -53 -8 -83 -17 -30 -8 -85
-22 -123 -31 -59 -14 -67 -19 -64 -38 6 -41 21 -52 92 -65 108 -20 213 -50
282 -82 35 -16 66 -30 71 -31 4 -1 12 -6 17 -10 6 -5 38 -26 72 -48 134 -84
253 -209 351 -366 18 -28 32 -55 32 -61 0 -6 7 -16 15 -23 8 -6 14 -15 14 -18
-2 -16 14 -52 23 -52 5 0 5 7 -1 17 -7 13 -3 31 17 68 15 27 29 52 32 55 3 3
20 34 39 70 18 36 39 72 46 80 18 21 50 84 47 93 -1 4 3 7 8 7 6 0 10 7 10 15
0 8 3 15 8 15 7 0 24 31 43 78 7 19 2 29 -34 65 -23 23 -60 56 -82 72 -22 16
-42 32 -45 35 -26 27 -170 101 -258 132 -57 20 -66 22 -132 32 -19 3 -46 9
-60 12 -36 9 -299 13 -305 4z"/>
<path d="M2236 4403 c-3 -3 -27 -8 -53 -10 -54 -4 -186 -36 -253 -60 -63 -24
-210 -102 -230 -123 -3 -3 -31 -25 -62 -48 -80 -61 -170 -161 -225 -250 -26
-43 -50 -79 -53 -82 -3 -3 -6 -12 -8 -20 -2 -8 -10 -22 -17 -30 -8 -8 -19 -28
-25 -44 -14 -37 -14 -36 210 -159 30 -17 67 -38 82 -49 14 -10 28 -18 31 -18
3 0 51 -27 106 -60 56 -33 105 -60 109 -60 4 0 18 21 32 47 89 169 147 236
245 283 126 62 244 61 368 -2 82 -41 152 -109 187 -182 41 -86 47 -124 41
-255 -1 -30 -3 -33 -23 -27 -13 4 -34 9 -48 12 -13 3 -28 11 -32 17 -4 7 -8 9
-8 6 0 -4 -17 -3 -37 2 -156 39 -353 42 -483 9 -19 -5 -46 -11 -60 -14 -36 -7
-93 -27 -107 -39 -7 -5 -13 -7 -13 -4 0 7 -73 -22 -80 -32 -3 -4 -23 -15 -45
-26 -80 -37 -181 -121 -301 -249 -26 -27 -83 -118 -114 -182 -19 -38 -39 -72
-45 -76 -5 -4 -7 -8 -3 -8 4 0 -1 -20 -12 -44 -10 -24 -21 -57 -24 -73 -3 -15
-11 -48 -17 -73 -13 -50 -18 -287 -7 -365 10 -71 54 -229 76 -271 5 -11 22
-44 38 -74 15 -30 32 -58 38 -62 6 -4 7 -8 3 -8 -4 0 1 -9 11 -20 10 -11 25
-33 33 -48 19 -37 173 -191 231 -230 71 -48 216 -131 241 -137 19 -5 27 3 52
54 17 34 33 61 38 61 4 0 7 4 7 9 0 5 37 71 81 147 45 77 93 159 107 184 14
25 30 53 36 63 9 14 6 22 -19 42 -17 13 -34 24 -38 25 -4 0 -24 11 -44 25 -20
13 -40 22 -45 19 -4 -3 -8 -1 -8 5 0 5 -8 12 -17 15 -30 10 -133 115 -133 136
0 6 -4 10 -9 10 -13 0 -51 129 -53 180 0 25 3 65 7 90 9 55 60 170 74 170 6 0
10 4 9 9 -5 17 71 89 128 121 58 32 73 37 134 46 59 8 73 8 118 1 43 -7 43 -8
37 -40 -4 -17 -11 -36 -15 -42 -5 -5 -8 -13 -8 -18 -1 -14 -14 -72 -20 -81
-16 -27 -25 -318 -12 -381 5 -27 11 -59 13 -70 1 -11 6 -26 10 -32 5 -7 6 -13
3 -13 -16 0 76 -220 118 -283 14 -21 26 -40 26 -44 0 -17 219 -253 235 -253 3
0 27 -15 54 -34 98 -69 309 -155 392 -160 19 -2 40 -5 45 -9 13 -8 300 -2 334
6 14 4 35 9 48 12 12 3 32 8 45 11 12 3 29 7 37 9 8 1 24 6 35 10 11 4 33 12
50 19 120 46 261 140 360 240 49 50 145 169 145 180 0 3 19 36 41 73 23 38 48
82 55 99 11 27 11 31 -9 44 -20 12 -129 75 -182 105 -11 6 -46 26 -78 45 -193
115 -258 151 -266 146 -4 -3 -34 -49 -67 -103 -71 -121 -127 -181 -202 -221
-141 -75 -331 -56 -448 45 -16 14 -36 30 -45 37 -27 20 -76 100 -94 156 -22
65 -28 205 -10 220 12 10 81 -7 126 -31 9 -5 43 -11 75 -15 33 -3 63 -8 67
-11 11 -6 233 -5 267 2 13 2 42 7 65 11 46 7 55 9 75 17 15 5 120 40 130 42 3
1 18 7 33 13 16 7 33 12 38 12 5 0 9 4 9 9 0 5 9 13 21 16 42 14 170 107 237
172 86 85 153 176 201 273 61 123 78 171 107 315 3 17 7 82 9 145 6 173 -28
333 -103 489 -20 42 -39 78 -42 81 -3 3 -17 23 -30 45 -34 56 -45 69 -131 155
-66 66 -194 162 -279 209 -83 45 -120 58 -120 41 0 -4 -11 -24 -25 -44 -13
-20 -21 -36 -17 -36 4 0 2 -4 -4 -8 -6 -4 -21 -27 -34 -52 -14 -25 -29 -52
-36 -60 -6 -8 -28 -46 -49 -85 -20 -38 -44 -77 -51 -86 -8 -8 -14 -20 -14 -26
0 -6 -7 -16 -15 -23 -9 -7 -13 -15 -10 -18 3 -3 -6 -19 -18 -36 -40 -53 -40
-62 4 -85 21 -12 57 -30 79 -42 22 -12 40 -26 40 -32 0 -6 3 -7 7 -4 6 7 64
-32 93 -62 31 -33 67 -87 84 -126 10 -22 21 -47 25 -55 9 -19 7 -175 -3 -214
-16 -67 -62 -142 -123 -202 -34 -35 -73 -66 -85 -69 -13 -4 -39 -14 -58 -23
-40 -19 -207 -27 -226 -11 -11 9 -1 57 33 149 6 16 7 21 18 95 10 60 10 255 2
310 -44 275 -186 525 -385 677 -31 23 -59 46 -62 49 -3 4 -34 22 -70 40 -36
19 -66 37 -68 42 -2 4 -12 7 -23 7 -10 0 -19 5 -19 10 0 6 -3 9 -7 8 -5 -1
-37 7 -73 19 -108 36 -265 62 -320 53 -19 -3 -47 -3 -62 1 -14 4 -29 5 -32 2z"/>
<path d="M3365 3750 c-3 -5 0 -12 6 -15 5 -4 8 -13 5 -21 -3 -7 -1 -16 4 -19
6 -4 10 -17 10 -31 0 -14 4 -33 9 -42 5 -9 12 -39 17 -67 8 -54 10 -343 2
-413 -2 -24 0 -46 5 -49 5 -3 3 -9 -4 -14 -11 -7 -10 -9 4 -9 10 0 16 -4 13
-9 -13 -20 84 -34 124 -17 69 29 169 172 174 250 1 18 5 37 9 42 3 6 2 16 -3
24 -5 8 -5 22 1 32 6 12 6 18 -1 18 -5 0 -10 14 -10 30 0 17 -4 30 -9 30 -5 0
-12 12 -15 26 -8 29 -16 40 -66 91 -41 41 -267 175 -275 163z"/>
<path d="M2258 3695 c-2 -3 -13 -6 -24 -9 -61 -12 -84 -19 -84 -27 0 -4 -9
-10 -19 -14 -19 -6 -126 -105 -114 -105 4 0 -1 -8 -9 -17 -8 -10 -21 -33 -29
-50 -8 -18 -18 -33 -22 -33 -5 0 -6 -4 -3 -9 3 -5 -1 -12 -10 -15 -9 -4 -14
-9 -11 -13 4 -3 -2 -18 -13 -33 -11 -16 -20 -33 -20 -40 0 -6 -4 -9 -9 -5 -5
3 -12 1 -15 -3 -9 -14 -56 -5 -77 14 -10 9 -19 14 -19 11 0 -4 -25 9 -55 28
-30 19 -56 35 -58 35 -3 0 -35 18 -71 40 -36 22 -70 40 -76 40 -5 0 -10 5 -10
10 0 6 -4 10 -10 10 -5 0 -32 14 -61 31 -39 22 -59 28 -80 24 -16 -4 -29 -10
-29 -13 0 -4 -17 -26 -38 -48 -51 -57 -72 -83 -72 -90 0 -3 -11 -20 -24 -37
-59 -78 -135 -268 -151 -374 -2 -15 -7 -41 -11 -58 -8 -36 -8 -250 -1 -285 17
-76 29 -129 37 -160 5 -19 14 -55 20 -80 13 -54 26 -70 51 -67 26 4 41 21 44
49 3 22 9 56 19 103 14 70 41 155 62 198 13 28 24 56 24 63 0 7 3 14 8 16 4 2
18 23 31 48 37 69 114 170 170 223 80 75 182 157 197 157 8 0 14 4 14 8 0 4
19 18 43 30 23 12 57 31 75 42 17 11 32 17 32 14 0 -4 7 -1 15 6 8 7 15 10 15
6 0 -5 19 1 95 30 11 4 23 8 28 9 4 2 8 3 10 4 2 2 59 10 107 16 14 1 25 3 25
5 0 1 23 3 50 5 28 2 52 4 55 5 6 2 80 -1 125 -5 164 -15 213 -16 219 -6 4 6
12 9 17 6 5 -4 9 1 9 9 0 9 6 16 13 16 8 0 9 3 1 8 -6 4 -10 17 -9 30 1 12 -3
22 -8 22 -5 0 -7 7 -3 15 3 8 1 15 -4 15 -6 0 -10 7 -10 15 0 8 -5 15 -12 15
-6 0 -9 3 -5 6 8 9 -73 94 -90 94 -7 0 -13 4 -13 9 0 5 -12 13 -27 19 -16 6
-37 13 -48 18 -38 14 -148 27 -157 19z"/>
<path d="M4530 3247 c-11 -10 -20 -28 -21 -40 -1 -27 -5 -53 -15 -92 -4 -16
-8 -40 -8 -52 -1 -13 -5 -23 -10 -23 -4 0 -6 -7 -2 -15 3 -8 0 -15 -6 -15 -6
0 -8 -3 -5 -7 4 -3 2 -12 -4 -20 -6 -7 -8 -13 -4 -13 4 0 0 -11 -9 -25 -9 -14
-14 -30 -11 -34 3 -5 2 -11 -2 -13 -5 -1 -19 -27 -32 -55 -14 -29 -28 -53 -33
-53 -5 0 -7 -4 -4 -9 14 -21 -173 -242 -263 -311 -18 -14 -38 -29 -45 -35 -11
-9 -24 -17 -78 -47 -13 -7 -25 -16 -28 -19 -3 -3 -34 -20 -69 -36 -35 -17 -59
-33 -53 -37 6 -3 13 0 15 6 4 10 6 10 6 1 1 -7 12 -13 25 -13 13 0 26 -4 28
-8 3 -7 40 -30 138 -85 25 -14 86 -49 135 -77 122 -72 138 -80 153 -80 19 0
95 83 154 169 124 180 188 382 189 604 0 81 -15 219 -26 237 -2 4 -7 22 -10
41 -6 36 -23 103 -33 129 -6 18 -9 27 -11 38 -2 14 -42 8 -61 -11z"/>
<path d="M2230 2599 c0 -5 -5 -7 -10 -4 -17 11 -116 -41 -157 -82 -65 -65
-112 -178 -107 -258 6 -94 30 -152 87 -216 27 -30 111 -89 126 -89 6 0 11 -4
11 -9 0 -5 8 -11 18 -14 32 -11 107 -58 125 -79 24 -28 22 -49 -13 -108 -16
-28 -30 -55 -30 -60 0 -6 -4 -10 -10 -10 -5 0 -10 -5 -10 -11 0 -7 -13 -34
-30 -60 -16 -27 -27 -49 -25 -49 3 0 -3 -10 -14 -22 -11 -11 -18 -25 -15 -30
3 -4 1 -8 -3 -8 -5 0 -20 -21 -33 -47 -14 -27 -28 -50 -31 -53 -3 -3 -11 -20
-17 -38 -11 -32 -10 -35 37 -80 65 -63 110 -99 144 -114 15 -7 27 -16 27 -20
0 -5 6 -8 14 -8 8 0 22 -8 32 -17 10 -10 18 -16 18 -14 1 2 26 -7 56 -21 49
-23 91 -39 113 -44 4 -1 8 -2 10 -4 5 -4 37 -11 130 -28 172 -31 345 -19 541
37 81 24 96 34 88 64 -6 25 -27 40 -57 43 -32 2 -127 20 -132 24 -2 2 -11 3
-20 5 -10 1 -26 5 -35 9 -9 4 -22 9 -30 10 -41 9 -258 115 -258 127 0 5 -5 9
-11 9 -25 0 -229 188 -267 246 -7 10 -21 33 -32 49 -10 17 -24 35 -29 42 -6 7
-11 19 -11 28 0 8 -4 15 -8 15 -7 0 -72 127 -78 153 -1 4 -2 8 -4 10 -1 1 -3
9 -5 17 -4 16 -22 81 -31 115 -3 11 -7 29 -8 40 -2 11 -5 20 -6 20 -2 0 -4 71
-5 158 -1 86 1 157 4 157 3 0 7 12 7 28 1 15 4 56 7 92 4 43 2 69 -6 79 -7 8
-7 12 -1 8 6 -3 11 -1 11 6 0 7 -8 13 -18 13 -10 0 -15 -5 -12 -11 3 -5 0 -4
-8 3 -16 15 -29 16 -29 1z"/>
<path d="M3790 2292 c0 -5 7 -9 15 -9 8 0 12 4 9 9 -3 4 -9 8 -15 8 -5 0 -9
-4 -9 -8z"/>
<path d="M3735 2275 c-21 -8 -41 -12 -44 -10 -2 3 -9 1 -15 -4 -6 -5 -29 -12
-51 -15 -22 -3 -53 -8 -70 -12 -30 -7 -240 -7 -305 0 -44 4 -80 16 -80 25 0 4
-6 8 -12 9 -7 1 -28 4 -45 6 -22 4 -32 2 -30 -6 1 -7 -5 -12 -13 -13 -11 0
-14 -10 -13 -40 5 -72 7 -85 15 -85 4 0 7 -3 6 -7 -7 -23 96 -137 134 -149 10
-3 18 -9 18 -13 0 -10 74 -33 120 -38 19 -2 40 -4 45 -4 25 -3 100 14 142 32
51 22 140 109 169 166 10 21 31 57 47 80 15 23 27 46 27 51 0 6 5 12 11 14 8
3 7 7 -2 15 -11 8 -24 8 -54 -2z"/>
</g>
</svg>
